<svg viewBox="0 0 14 14" fill="none" xmlns="http://www.w3.org/2000/svg">
<path d="M13.2071 2.20711C13.5976 1.81658 13.5976 1.18342 13.2071 0.792893C12.8166 0.402369 12.1834 0.402369 11.7929 0.792893L7 5.58579L2.20717 0.792954C1.81664 0.40243 1.18348 0.40243 0.792955 0.792954C0.402431 1.18348 0.402431 1.81664 0.792955 2.20717L5.58579 7L0.792894 11.7929C0.402369 12.1834 0.402369 12.8166 0.792893 13.2071C1.18342 13.5976 1.81658 13.5976 2.20711 13.2071L7 8.41421L11.793 13.2072C12.1835 13.5977 12.8166 13.5977 13.2072 13.2072C13.5977 12.8166 13.5977 12.1835 13.2072 11.793L8.41421 7L13.2071 2.20711Z" fill="#B2B8BF"/>
</svg>
